<svg height='100px' width='100px'  fill="#000000" xmlns="http://www.w3.org/2000/svg" xmlns:xlink="http://www.w3.org/1999/xlink" xml:space="preserve" version="1.1" style="shape-rendering:geometricPrecision;text-rendering:geometricPrecision;image-rendering:optimizeQuality;" viewBox="0 0 15.947 22.85" x="0px" y="0px" fill-rule="evenodd" clip-rule="evenodd"><defs>
<style type="text/css">
    .fil0 {fill:#000000;fill-rule:nonzero}
</style>
</defs><g><path class="fil0" d="M3.213 22.85c-0.263,0 -0.476,-0.214 -0.476,-0.476 0,-0.263 0.213,-0.476 0.476,-0.476l2.856 0 0 -7.541 -4.165 0c-0.522,0 -0.997,-0.214 -1.342,-0.558l-0.002 -0.002c-0.346,-0.346 -0.56,-0.822 -0.56,-1.344l0 -5.712c0,-0.524 0.214,-1 0.559,-1.345 0.345,-0.345 0.821,-0.559 1.345,-0.559 0.524,0 1,0.214 1.345,0.559 0.344,0.346 0.559,0.822 0.559,1.345l0 3.808 2.261 0 0 -8.645c0,-1.046 0.858,-1.904 1.905,-1.904 0.523,0 1,0.214 1.344,0.559 0.345,0.347 0.56,0.823 0.56,1.345l0 5.789 2.261 0 0 -3.809c0,-0.524 0.214,-1 0.559,-1.345 0.345,-0.345 0.821,-0.559 1.345,-0.559 0.524,0 1,0.214 1.345,0.559 0.345,0.345 0.559,0.821 0.559,1.345l0 5.713c0,0.524 -0.214,0.998 -0.558,1.343 -0.344,0.343 -0.82,0.557 -1.344,0.559l-4.167 0.016 0 10.383 2.856 0c0.263,0 0.476,0.213 0.476,0.476 0,0.262 -0.213,0.476 -0.476,0.476l-3.332 0 -2.857 0 -3.332 0z"></path></g></svg>